<svg xmlns="http://www.w3.org/2000/svg" viewBox="0 0 89.88 89.87"><defs><style>.cls-1{fill:#f26722;}.cls-2{fill:#231f20;}</style></defs><title>Asset 1</title><g id="Layer_2" data-name="Layer 2"><g id="Layer_1-2" data-name="Layer 1"><path class="cls-1" d="M6.72,31.1c-2.67-1.21-3.45-3.64-2.52-5.68a3.62,3.62,0,0,1,2.12-1.9L7,24.84A2.22,2.22,0,0,0,5.61,26c-.56,1.22.07,2.61,1.81,3.4s3.19.46,3.78-.82a2.5,2.5,0,0,0,0-2l1.39-.39a3.59,3.59,0,0,1,0,3.12C11.64,31.33,9.42,32.33,6.72,31.1Z"/><path class="cls-1" d="M8.3,18.6l1.14-1.36,2.67,2.25,2.16-2.58L11.6,14.67l1.14-1.35L19.53,19,18.4,20.38l-2.94-2.47L13.3,20.48,16.24,23l-1.15,1.36Z"/><path class="cls-1" d="M19.89,13.42l-2.7-4.07,1.48-1,2.78,4.2c1,1.54,1.9,1.7,2.77,1.13s1.1-1.48.07-3l-2.78-4.2,1.41-.94,2.71,4.07c1.63,2.46,1.25,4.16-.56,5.37S21.52,15.88,19.89,13.42Z"/><path class="cls-1" d="M28.28,3l2.8-.9c1.73-.56,3.22-.48,3.73,1.09a2,2,0,0,1-.57,2.2l0,.06A2,2,0,0,1,36.49,7c.55,1.7-.61,3-2.47,3.55l-3,1ZM32.06,5.6c1.07-.35,1.4-.93,1.18-1.61s-.83-.87-1.85-.55l-1,.33.7,2.15Zm1.39,3.65c1.15-.37,1.65-1,1.36-1.86s-1-1-2.15-.6l-1.18.38.79,2.46Z"/><path class="cls-1" d="M39.75.15,42.69,0C44.51-.08,45.93.39,46,2a2,2,0,0,1-1.12,2v.06a2,2,0,0,1,1.77,2c.08,1.78-1.37,2.68-3.32,2.77L40.17,9Zm3,3.48c1.13-.06,1.6-.54,1.56-1.24s-.58-1.07-1.64-1l-1.06,0,.11,2.25Zm.39,3.88c1.21,0,1.85-.52,1.8-1.44S44.22,4.88,43,4.94L41.76,5l.12,2.58Z"/><path class="cls-2" d="M56.82,1.51l1.69.56-2.34,7,3.41,1.14-.47,1.41L54,9.93Z"/><path class="cls-2" d="M66.21,5.34l1.54.88-4.38,7.72-1.54-.87Z"/><path class="cls-2" d="M72.25,9.2l4.16,3.56-1,1.12-2.8-2.4-1.51,1.76,2.4,2-1,1.13-2.4-2.06L67.82,17.1l-1.35-1.16Z"/><path class="cls-2" d="M79.79,16.52,83,20.94l-1.19.87-2.15-3L78,20l1.83,2.53-1.21.87L76.76,20.9l-1.93,1.39,2.22,3.09-1.2.87-3.27-4.53Z"/><path class="cls-2" d="M87.45,30.58l.53,1.7L79.5,34.93,79,33.24Z"/><path class="cls-2" d="M89.32,37.72l.15,1.81-4.5,3-1.84,1v.06c.91-.17,2.08-.4,3.08-.48l3.53-.29.14,1.67L81,45.22l-.15-1.79,4.52-3,1.83-1.06v-.06c-1,.17-2.06.39-3.07.47l-3.56.3-.14-1.68Z"/><path class="cls-2" d="M82,48.4l1,1.22a3.58,3.58,0,0,0-1.38,2c-.16.91.14,1.47.75,1.58s1-.37,1.42-1.09l.71-1.08a2.58,2.58,0,0,1,2.68-1.34c1.43.26,2.3,1.72,2,3.49a3.93,3.93,0,0,1-1.62,2.53l-.94-1.09a2.83,2.83,0,0,0,1.06-1.72c.14-.77-.11-1.32-.69-1.43s-1,.47-1.39,1.16l-.7,1.06a2.45,2.45,0,0,1-2.69,1.32c-1.43-.26-2.43-1.68-2.06-3.7A4.7,4.7,0,0,1,82,48.4Z"/><path class="cls-2" d="M82.41,59.08l4.4,2.12L86,62.8,81.5,60.61c-1.66-.8-2.5-.5-3,.44s-.19,1.83,1.47,2.63l4.54,2.18-.74,1.54-4.4-2.12c-2.65-1.28-3.2-2.94-2.26-4.9S79.75,57.8,82.41,59.08Z"/><path class="cls-2" d="M70.64,70l3.72.86.82-.93-2.51-2.22,1.17-1.34,6.65,5.89-2,2.32c-1.23,1.39-2.69,2.07-4.22.71a2.53,2.53,0,0,1-.79-3l-4.1-.85Zm5.59.86-.76.86c-.75.86-.81,1.64-.1,2.27s1.38.38,2.13-.47l.77-.86Z"/><path class="cls-2" d="M65.08,77.39l2.39-1.61-.76-2.24,1.49-1,2.61,9-1.73,1.17-7.33-5.76,1.54-1Zm1.09.93.76.66c.75.61,1.52,1.32,2.27,2l0,0c-.35-.93-.7-1.92-1-2.83l-.33-1Z"/><path class="cls-2" d="M62.36,86.33l-1.72.57-4-3.66L55.24,81.7l-.06,0c.38.84.88,1.92,1.2,2.87L57.51,88l-1.59.54-2.83-8.43,1.71-.57,4,3.69,1.46,1.53,0,0c-.38-.89-.86-1.9-1.19-2.87l-1.13-3.38,1.6-.54Z"/><path class="cls-2" d="M50.3,85c.15,2.93-1.64,4.74-3.88,4.85a3.61,3.61,0,0,1-2.66-1l.88-1.17a2.28,2.28,0,0,0,1.66.66c1.35-.07,2.29-1.28,2.19-3.18s-1.07-3-2.47-3a2.46,2.46,0,0,0-1.79,1l-1-1A3.6,3.6,0,0,1,46,80.66C48.24,80.55,50.14,82.06,50.3,85Z"/><path class="cls-2" d="M38.63,89.36,33.29,88.3l.28-1.45,3.6.72.4-2L34.51,85l.29-1.46,3.06.61.47-2.33L34.6,81l.29-1.46,5.47,1.08Z"/><path class="cls-2" d="M23.05,84.18l-1.49-1L23.65,80l0,0L19.06,81.6l-1.64-1.06,4.17-1.46.25-6.26,1.64,1.07-.24,4.58L25,77.86l1.36-2.1,1.49,1Z"/><path class="cls-2" d="M17.29,74.73c-2.16,1.92-4.49,1.83-6,.07s-1.38-4.09.77-6,4.54-1.88,6.11-.13S19.44,72.81,17.29,74.73Zm-4.08-4.58c-1.42,1.27-1.71,2.66-.84,3.64s2.29.85,3.72-.41,1.76-2.7.88-3.68S14.63,68.89,13.21,70.15Z"/><path class="cls-2" d="M11.63,58.82,9.4,61.93,9.94,63l3-1.46.78,1.6L5.74,67,4.4,64.25c-.81-1.67-.87-3.28,1-4.17a2.54,2.54,0,0,1,3,.41L10.77,57Zm-3,4.83-.51-1c-.49-1-1.19-1.38-2-1s-.88,1.12-.39,2.15l.5,1Z"/><path class="cls-2" d="M1.33,56.09l-1-5.35,1.45-.29.71,3.61,2-.4-.6-3.06,1.46-.29.6,3.06,2.33-.45-.73-3.74L9,48.89l1.08,5.48Z"/><path class="cls-2" d="M6.71,41.44l-.14,2.87,2.24.74-.09,1.8L0,43.56l.11-2.08,9-2.4L9,40.93Zm-1.39.31-1,.22c-.93.23-2,.41-2.94.63v0c1,.27,2,.59,2.86.9l1,.31Z"/></g></g></svg>