<?xml version="1.0" encoding="UTF-8"?><svg id="Layer_2" xmlns="http://www.w3.org/2000/svg" viewBox="0 0 64.65 45.7"><defs><style>.cls-1{fill:#fff;}.cls-2{fill:#f60;}.cls-3{fill:#ccc;}</style></defs><g id="Layer_1-2"><path class="cls-3" d="M60.26,41.12c2.72-2.35,4.39-5.44,4.39-8.84,0-7.32-7.65-13.25-17.1-13.25s-17.1,5.93-17.1,13.25,7.65,13.25,17.1,13.25c2.82,0,5.47-.54,7.81-1.47,4.19,1.34,8.57,1.65,8.57,1.65-1.44-1.33-2.66-2.94-3.68-4.58Z"/><path class="cls-2" d="M26.47,0C11.85,0,0,9.18,0,20.51c0,5.27,2.57,10.08,6.79,13.71-1.58,2.52-3.47,5.01-5.69,7.06,0,0,6.77-.48,13.25-2.54,3.63,1.45,7.75,2.28,12.11,2.28,14.62,0,26.47-9.18,26.47-20.51S41.08,0,26.47,0Z"/><circle class="cls-1" cx="17.37" cy="20.51" r="2.39"/><circle class="cls-1" cx="26.47" cy="20.51" r="2.39"/><circle class="cls-1" cx="35.57" cy="20.51" r="2.39"/></g></svg>