<?xml version="1.0" encoding="UTF-8"?><svg id="Layer_2" xmlns="http://www.w3.org/2000/svg" viewBox="0 0 146.57 129.25"><defs><style>.cls-1{fill:none;stroke:#1a294a;stroke-miterlimit:10;stroke-width:7px;}</style></defs><g id="Objects"><path class="cls-1" d="m50.43,64.86l5.31-4.08c.24-.18.45-.38.64-.61,2.22-2.61,16.52-19.7,19.74-30.59.11-.38.16-.78.16-1.18V10.83c0-1.84.87-3.57,2.34-4.68,2.67-2.02,7.47-4.25,13.49-1.04.66.35,1.22.86,1.61,1.49,1.43,2.29,5.12,8.73,7.11,16.98.53,2.18.6,4.44.22,6.65l-3.55,20.54c-.08.45.27.86.73.86h35.7c4.2,0,7.91,2.88,8.82,6.98.2.89.31,1.89.31,3,0,5.56-3.18,8.13-5.35,9.23-.78.4-.93,1.44-.31,2.05,1.26,1.23,2.77,3.36,2.77,6.47,0,4.02-3.04,6.91-4.53,8.08-.39.31-.45.87-.12,1.25.85.97,2.2,3.02,2.2,6.21,0,3.81-2.82,7.03-4.94,8.44-.62.41-.76,1.23-.38,1.86.77,1.26,1.77,3.53,1.77,6.79,0,5.33-5.33,9.54-10.43,9.54h-62.01c-.66,0-1.31-.15-1.9-.45l-8.73-4.36c-1.44-.72-2.35-2.2-2.35-3.81v-44.67c0-1.32.61-2.57,1.66-3.38Z"/><rect class="cls-1" x="3.5" y="61.62" width="45.26" height="64.12" rx="4.52" ry="4.52"/><path class="cls-1" d="m31.47,112.92c0,2.11-2.39,3.81-5.34,3.81s-5.34-1.71-5.34-3.81,2.39-3.81,5.34-3.81,5.34,1.71,5.34,3.81Z"/></g></svg>