<svg xmlns="http://www.w3.org/2000/svg" viewBox="0 0 127.56 167.2"><defs><style>.cls-1{fill:#010101;}</style></defs><title>icon2</title><g id="Layer_2" data-name="Layer 2"><g id="Layer_1-2" data-name="Layer 1"><path class="cls-1" d="M81.16,144H46.39a2.62,2.62,0,0,1-2.63-2.6,2.51,2.51,0,0,1,.41-1.39A68,68,0,0,0,50,124.6,33.71,33.71,0,0,0,50.44,111,45.91,45.91,0,0,1,18.38,72.43,27.64,27.64,0,0,1,5.6,63.19,27,27,0,0,1,0,46.67v-30A2.61,2.61,0,0,1,2.61,14h15.5V2.61A2.61,2.61,0,0,1,20.71,0h86.14a2.61,2.61,0,0,1,2.62,2.61V14H125a2.61,2.61,0,0,1,2.6,2.61v30A27,27,0,0,1,122,63.19a27.61,27.61,0,0,1-12.77,9.24,45.93,45.93,0,0,1-32,38.59,34.39,34.39,0,0,0,.39,13.88,63,63,0,0,0,5.94,15.29,2.59,2.59,0,0,1,.17,2,2.64,2.64,0,0,1-1.28,1.52A2.71,2.71,0,0,1,81.16,144ZM2.67,16.77l.08,29.9a24.27,24.27,0,0,0,5,14.85,24.88,24.88,0,0,0,12.28,8.57,1.39,1.39,0,0,1,1,1.19,43.17,43.17,0,0,0,31,37.34,1.36,1.36,0,0,1,1,1,35.93,35.93,0,0,1-.27,15.55,70.63,70.63,0,0,1-6.15,16.15l34.37-.11a65,65,0,0,1-6.07-15.76,36.54,36.54,0,0,1-.24-15.83,1.36,1.36,0,0,1,1-1,43.18,43.18,0,0,0,31-37.34,1.39,1.39,0,0,1,1-1.19,24.81,24.81,0,0,0,12.27-8.57,24.24,24.24,0,0,0,5-14.85v-30l-16.71.07a1.37,1.37,0,0,1-1.37-1.37V2.66l-86,.09.09,12.65a1.37,1.37,0,0,1-1.37,1.37ZM108.1,62.28a1.39,1.39,0,0,1-.71-.2,1.37,1.37,0,0,1-.66-1.18V25.14a1.37,1.37,0,0,1,1.37-1.38h9.06a1.38,1.38,0,0,1,1.38,1.38V46a18,18,0,0,1-3.18,10.27,18.31,18.31,0,0,1-6.62,5.9A1.32,1.32,0,0,1,108.1,62.28Zm1.37-35.77V58.43a15.44,15.44,0,0,0,3.62-3.77,15.21,15.21,0,0,0,2.7-8.71V26.51Zm-90,35.77a1.28,1.28,0,0,1-.63-.16,18.17,18.17,0,0,1-6.65-5.91A18,18,0,0,1,9,46V25.14a1.37,1.37,0,0,1,1.37-1.38h9.09a1.37,1.37,0,0,1,1.37,1.38V60.9a1.38,1.38,0,0,1-.66,1.18A1.36,1.36,0,0,1,19.48,62.28ZM11.77,26.51V46a15.59,15.59,0,0,0,6.34,12.49V26.51Z"/><path class="cls-1" d="M98.38,160.61H29.18a1.37,1.37,0,0,1-1.37-1.37V142.62a1.37,1.37,0,0,1,1.37-1.38h69.2a1.37,1.37,0,0,1,1.37,1.38v16.62A1.37,1.37,0,0,1,98.38,160.61Zm-67.82-2.75H97V144H30.56Z"/><path class="cls-1" d="M90.62,167.2H36.94a1.37,1.37,0,0,1-1.38-1.37v-6.59a1.38,1.38,0,0,1,1.38-1.38H90.62A1.38,1.38,0,0,1,92,159.24v6.59A1.37,1.37,0,0,1,90.62,167.2Zm-52.31-2.75H89.25v-3.84H38.31Z"/><path class="cls-1" d="M76,78.49a2.56,2.56,0,0,1-1.66-.61L63.79,70.17,53.05,78a2.65,2.65,0,0,1-3.65-.6,2.54,2.54,0,0,1-.34-2.31l4.11-12.62L42.42,54.69a2.62,2.62,0,0,1-.94-2.93A2.55,2.55,0,0,1,43.94,50l13.28,0L61.3,37.37a2.54,2.54,0,0,1,2.47-1.8,2.59,2.59,0,0,1,2.48,1.79L70.34,50,83.6,50a2.61,2.61,0,0,1,2.48,1.81,2.56,2.56,0,0,1-1,2.9L74.38,62.45l4.13,12.63a2.54,2.54,0,0,1-.35,2.31A2.62,2.62,0,0,1,76,78.49ZM63.79,67.09a1.36,1.36,0,0,1,.81.27l11.26,8.21L71.45,62.35a1.39,1.39,0,0,1,.5-1.54l11.2-8.1-13.81,0h0a1.39,1.39,0,0,1-1.31-1L63.78,38.64,59.53,51.8a1.31,1.31,0,0,1-1.31,1l-13.84,0,11.21,8.1a1.39,1.39,0,0,1,.5,1.54L51.8,75.55,63,67.36A1.36,1.36,0,0,1,63.79,67.09Z"/></g></g></svg>