<svg xmlns="http://www.w3.org/2000/svg" viewBox="0 0 127.56 125.63"><defs><style>.cls-1{fill:#010101;}.cls-2{fill:none;}</style></defs><title>icon1</title><g id="Layer_2" data-name="Layer 2"><g id="Layer_1-2" data-name="Layer 1"><path class="cls-1" d="M123.37,125.63H3.94a1,1,0,0,1-.89-.5,21.18,21.18,0,0,1-3-11,22.38,22.38,0,0,1,.32-3.7,21.27,21.27,0,0,1,21-17.63,21.05,21.05,0,0,1,8,1.55,16.36,16.36,0,0,1,30.05-2.6,16.36,16.36,0,0,1,21.7.91,27.32,27.32,0,0,1,43.24,32.4A1,1,0,0,1,123.37,125.63ZM4.54,123.54h118.2A25.23,25.23,0,0,0,81.81,94.9a1,1,0,0,1-.76.33h0a1,1,0,0,1-.77-.34,14.26,14.26,0,0,0-20.54-.65,1,1,0,0,1-.94.27,1.06,1.06,0,0,1-.76-.62,14.26,14.26,0,0,0-27,2.16,1,1,0,0,1-.56.7,1.05,1.05,0,0,1-.9,0,19.24,19.24,0,0,0-27.16,14,20.28,20.28,0,0,0-.28,3.35A19.19,19.19,0,0,0,4.54,123.54Z"/><path class="cls-1" d="M90.26,111.67H1.35a1.05,1.05,0,0,1,0-2.1H90.26a1,1,0,0,1,0,2.1Z"/><path class="cls-1" d="M77.44,77.44a61.1,61.1,0,0,1-11.9-1.27,1.06,1.06,0,0,1-.83-.82c-3-14.87-.7-26.56,6.58-33.81,5.19-5.2,12.56-7.83,21.9-7.83A61.23,61.23,0,0,1,105.1,35a1,1,0,0,1,.82.82c3,14.87.68,26.56-6.57,33.81C94.15,74.8,86.78,77.44,77.44,77.44Zm-10.8-3.19a58.57,58.57,0,0,0,10.8,1.09c8.76,0,15.64-2.43,20.43-7.22,6.62-6.62,8.73-17.41,6.13-31.23a58.7,58.7,0,0,0-10.81-1.08c-8.76,0-15.63,2.42-20.42,7.21C66.12,49.65,64,60.44,66.64,74.25Z"/><path class="cls-1" d="M54.86,77.71h0c-6.5,0-11.63-1.84-15.25-5.47-5-5-6.64-13.16-4.59-23.45a1,1,0,0,1,.82-.83,42.91,42.91,0,0,1,8.21-.87c6.49,0,11.62,1.84,15.24,5.46,5.06,5.05,6.65,13.17,4.6,23.47a1,1,0,0,1-.82.82A42.13,42.13,0,0,1,54.86,77.71ZM36.94,49.89c-1.7,9.24-.27,16.45,4.16,20.87,3.21,3.22,7.83,4.85,13.76,4.85h0A39.69,39.69,0,0,0,62,74.92c1.7-9.25.27-16.46-4.16-20.89S46.16,48.19,36.94,49.89Z"/><path class="cls-1" d="M65.74,76.19A1,1,0,0,1,65,75.9a1,1,0,0,1,0-1.48L91.22,47.06a1,1,0,1,1,1.51,1.45L66.5,75.87A1.07,1.07,0,0,1,65.74,76.19Z"/><path class="cls-1" d="M64,90.62a1,1,0,0,1-1-1.05V29.25a1,1,0,0,1,2.1,0V89.57A1,1,0,0,1,64,90.62Z"/><path class="cls-1" d="M82,59.25a1,1,0,0,1-1-1l-1.22-15a1,1,0,1,1,2.08-.17l1.23,15a1.05,1.05,0,0,1-1,1.13Z"/><path class="cls-1" d="M72,69.74a1.05,1.05,0,0,1-.16-2.09l16.09-2.54a1,1,0,0,1,.33,2.07l-16.1,2.54Z"/><path class="cls-1" d="M62.86,76.86a1,1,0,0,1-.75-.32L44,57.67a1.05,1.05,0,0,1,1.52-1.45l18.1,18.87a1,1,0,0,1-.76,1.77Z"/><path class="cls-1" d="M42.77,66a1,1,0,0,1-1-.68A1,1,0,0,1,42.4,64l6.68-2.53a1,1,0,0,1,.74,2l-6.67,2.53A1,1,0,0,1,42.77,66Z"/><path class="cls-1" d="M56.87,70.61H56.8a1.05,1.05,0,0,1-1-1.12l.65-10a1,1,0,1,1,2.09.14l-.65,10A1,1,0,0,1,56.87,70.61Z"/><path class="cls-1" d="M64,30.3A15.15,15.15,0,1,1,79.17,15.16,15.15,15.15,0,0,1,64,30.3ZM64,2.1a13.05,13.05,0,1,0,13,13.06A13.07,13.07,0,0,0,64,2.1Z"/><path class="cls-2" d="M64.85,20.65a2.44,2.44,0,0,0,1.39-.82,2.15,2.15,0,0,0,.54-1.47,1.94,1.94,0,0,0-.46-1.29,2.73,2.73,0,0,0-1.47-.85Zm-1.64-12a2.22,2.22,0,0,0-1.05.77,2.09,2.09,0,0,0-.38,1.21,1.87,1.87,0,0,0,.35,1.1,2.41,2.41,0,0,0,1.08.82Zm0,11.83V15.73A6.16,6.16,0,0,1,60,13.84a4.86,4.86,0,0,1-1-3.1,4.36,4.36,0,0,1,1.16-3.11,4.62,4.62,0,0,1,3.08-1.44V5.07h1.64V6.19a4.77,4.77,0,0,1,2.87,1.22,4.71,4.71,0,0,1,1.36,2.7l-2.86.37a2.29,2.29,0,0,0-1.37-1.8v4.39A7.36,7.36,0,0,1,68.56,15a4.53,4.53,0,0,1,1,3,5,5,0,0,1-1.24,3.43,5.56,5.56,0,0,1-3.46,1.74v2.1H63.21V23.16a5.26,5.26,0,0,1-3.15-1.45,5.9,5.9,0,0,1-1.56-3.4L61.43,18a4,4,0,0,0,.68,1.56A3.66,3.66,0,0,0,63.21,20.46Z"/><path class="cls-1" d="M24.64,38a4.83,4.83,0,1,1,4.83-4.83A4.83,4.83,0,0,1,24.64,38Zm0-7.55a2.73,2.73,0,1,0,2.74,2.72A2.72,2.72,0,0,0,24.64,30.4Z"/><path class="cls-1" d="M102,22a4.83,4.83,0,1,1,4.83-4.83A4.83,4.83,0,0,1,102,22Zm0-7.56a2.73,2.73,0,1,0,2.74,2.73A2.72,2.72,0,0,0,102,14.39Z"/></g></g></svg>