<svg xmlns="http://www.w3.org/2000/svg" viewBox="0 0 127.56 175.29"><defs><style>.cls-1{fill:#010101;}.cls-2{fill:none;stroke:#000;stroke-miterlimit:10;stroke-width:2px;}</style></defs><title>icon3</title><g id="Layer_2" data-name="Layer 2"><g id="Layer_1-2" data-name="Layer 1"><path class="cls-1" d="M92.25,146.17H39.43A1.44,1.44,0,0,1,38,144.72V110a47.87,47.87,0,1,1,55.7,0v34.7A1.45,1.45,0,0,1,92.25,146.17Zm-51.38-2.89H90.81v-34a1.47,1.47,0,0,1,.61-1.19,45,45,0,1,0-51.17,0,1.45,1.45,0,0,1,.62,1.19Z"/><path class="cls-1" d="M63,18.6a1.43,1.43,0,0,1-1.44-1.44V1.44a1.44,1.44,0,1,1,2.88,0V17.16A1.44,1.44,0,0,1,63,18.6Z"/><path class="cls-1" d="M81.85,20.4a1.65,1.65,0,0,1-.38,0,1.45,1.45,0,0,1-1-1.77L84.54,3.4a1.44,1.44,0,1,1,2.78.75L83.24,19.33A1.45,1.45,0,0,1,81.85,20.4Z"/><path class="cls-1" d="M99.59,27a1.44,1.44,0,0,1-1.25-2.16l7.86-13.63a1.44,1.44,0,1,1,2.49,1.44L100.84,26.3A1.45,1.45,0,0,1,99.59,27Z"/><path class="cls-1" d="M115,38a1.44,1.44,0,0,1-1-2.46L125.1,24.41a1.44,1.44,0,1,1,2,2L116,37.57A1.43,1.43,0,0,1,115,38Z"/><path class="cls-1" d="M12.55,41.66a1.45,1.45,0,0,1-1-.43L.42,30.11a1.44,1.44,0,0,1,2-2L13.57,39.2a1.43,1.43,0,0,1,0,2A1.4,1.4,0,0,1,12.55,41.66Z"/><path class="cls-1" d="M27.15,29.6a1.45,1.45,0,0,1-1.25-.72L18,15.27a1.45,1.45,0,0,1,2.5-1.45l7.86,13.62a1.42,1.42,0,0,1-.52,2A1.38,1.38,0,0,1,27.15,29.6Z"/><path class="cls-1" d="M44.37,21.75A1.44,1.44,0,0,1,43,20.68L38.9,5.5a1.44,1.44,0,1,1,2.78-.75l4.08,15.18a1.45,1.45,0,0,1-1,1.77A1.57,1.57,0,0,1,44.37,21.75Z"/><path class="cls-1" d="M35.54,95.13a1.47,1.47,0,0,1-1.25-.72l-2.63-4.54A1.44,1.44,0,0,1,32,88l7.17-5.71a29.09,29.09,0,0,1-1-3.75L29.12,77.2a1.45,1.45,0,0,1-1.23-1.43V70.54a1.43,1.43,0,0,1,1.23-1.42l9.07-1.36a27.85,27.85,0,0,1,1-3.75L32,58.3a1.44,1.44,0,0,1-.35-1.85l2.63-4.54a1.44,1.44,0,0,1,1.78-.62l8.53,3.36a27.25,27.25,0,0,1,2.74-2.74L44,43.38a1.44,1.44,0,0,1,.62-1.78L49.14,39a1.46,1.46,0,0,1,1.85.35L56.7,46.5a28.28,28.28,0,0,1,3.73-1l1.35-9.07a1.45,1.45,0,0,1,1.43-1.23h5.25a1.45,1.45,0,0,1,1.43,1.23l1.36,9.07a28.27,28.27,0,0,1,3.75,1l5.69-7.16A1.44,1.44,0,0,1,82.53,39l4.55,2.62a1.46,1.46,0,0,1,.62,1.78l-3.36,8.53a28.34,28.34,0,0,1,2.74,2.74l8.54-3.36a1.44,1.44,0,0,1,1.78.62L100,56.46a1.44,1.44,0,0,1-.36,1.84L92.5,64a26.59,26.59,0,0,1,1,3.75l9.06,1.36a1.43,1.43,0,0,1,1.23,1.42v5.23a1.45,1.45,0,0,1-1.23,1.43l-9.06,1.36a26.36,26.36,0,0,1-1,3.75L99.66,88a1.44,1.44,0,0,1,.36,1.84L97.4,94.4a1.43,1.43,0,0,1-1.78.62l-9.51-3.74a1.44,1.44,0,0,1,1-2.68l8.36,3.29L96.9,89.5l-7-5.58a1.46,1.46,0,0,1-.45-1.65,23.9,23.9,0,0,0,1.38-5.19A1.42,1.42,0,0,1,92,75.87l8.87-1.34V71.78L92,70.45a1.43,1.43,0,0,1-1.21-1.21,23.72,23.72,0,0,0-1.38-5.19,1.46,1.46,0,0,1,.45-1.65l7-5.58-1.38-2.4-8.36,3.29a1.43,1.43,0,0,1-1.65-.44,25.28,25.28,0,0,0-3.8-3.8,1.44,1.44,0,0,1-.43-1.65l3.28-8.34L82.17,42.1l-5.57,7a1.42,1.42,0,0,1-1.65.44,24.74,24.74,0,0,0-5.19-1.38A1.44,1.44,0,0,1,68.56,47l-1.34-8.88H64.45L63.12,47a1.44,1.44,0,0,1-1.2,1.21,23.77,23.77,0,0,0-5.17,1.38,1.43,1.43,0,0,1-1.66-.44l-5.58-7-2.39,1.38,3.28,8.34A1.44,1.44,0,0,1,50,53.47a24.82,24.82,0,0,0-3.8,3.8,1.43,1.43,0,0,1-1.65.44l-8.34-3.29-1.4,2.4,7,5.58a1.44,1.44,0,0,1,.44,1.65,25.59,25.59,0,0,0-1.38,5.2,1.44,1.44,0,0,1-1.21,1.2l-8.87,1.33v2.75l8.87,1.34a1.43,1.43,0,0,1,1.21,1.19,25.9,25.9,0,0,0,1.38,5.21,1.44,1.44,0,0,1-.44,1.65l-7,5.58,1.39,2.39,8.35-3.29a1.45,1.45,0,0,1,1.87.82,1.43,1.43,0,0,1-.81,1.86L36.07,95A1.4,1.4,0,0,1,35.54,95.13Z"/><path class="cls-1" d="M99.05,119H32.63a1.44,1.44,0,1,1,0-2.88H99.05a1.44,1.44,0,1,1,0,2.88Z"/><path class="cls-1" d="M99.05,128.76H32.63a1.44,1.44,0,0,1,0-2.88H99.05a1.44,1.44,0,1,1,0,2.88Z"/><path class="cls-1" d="M99.05,137.62H32.63a1.44,1.44,0,0,1,0-2.88H99.05a1.44,1.44,0,1,1,0,2.88Z"/><path class="cls-1" d="M83.05,161.78H48.63a1.44,1.44,0,0,1-1.44-1.45V144.72a1.44,1.44,0,0,1,1.44-1.44H83.05a1.45,1.45,0,0,1,1.44,1.44v15.61A1.45,1.45,0,0,1,83.05,161.78Zm-33-2.89H81.61V146.17H50.07Z"/><path class="cls-1" d="M71.36,175.29h-11a1.44,1.44,0,0,1-1.44-1.44V160.33a1.45,1.45,0,0,1,1.44-1.44h11a1.44,1.44,0,0,1,1.44,1.44v13.52A1.43,1.43,0,0,1,71.36,175.29Zm-9.61-2.88h8.17V161.78H61.75Z"/><path class="cls-2" d="M67,85.74a5.37,5.37,0,0,0,3.5-1.83A5.78,5.78,0,0,0,71.9,80a4.83,4.83,0,0,0-1-3.18,7.43,7.43,0,0,0-3.91-2ZM64.87,60.57a5.2,5.2,0,0,0-3.34,1.71,5.08,5.08,0,0,0-.19,6.37,6.45,6.45,0,0,0,3.53,1.89Zm0,31.88V88.81a13.64,13.64,0,0,1-4.43-1.22,7.89,7.89,0,0,1-2.95-2.84,10.28,10.28,0,0,1-1.44-4.81l3.64-.69a9.14,9.14,0,0,0,1.5,4.32,5.29,5.29,0,0,0,3.68,2.17V74.32a19.66,19.66,0,0,1-4.59-1.91,6.75,6.75,0,0,1-2.68-2.67,8.24,8.24,0,0,1-.93-3.91,8,8,0,0,1,2.74-6.3,9.46,9.46,0,0,1,5.46-2V55.81H67v1.74a8.89,8.89,0,0,1,5,1.86,8.39,8.39,0,0,1,2.86,5.47l-3.73.58a6.15,6.15,0,0,0-1.35-3.31A4.83,4.83,0,0,0,67,60.61V71.1a35.3,35.3,0,0,1,3.63,1.08A9.29,9.29,0,0,1,73.42,74a7.32,7.32,0,0,1,1.64,2.54,8.87,8.87,0,0,1-8,12.21v3.68Z"/></g></g></svg>