<svg xmlns="http://www.w3.org/2000/svg" viewBox="0 0 88.43 122.88"><defs><style>.cls-1{fill:#010101;}</style></defs><title>icon4</title><g id="Layer_2" data-name="Layer 2"><g id="Layer_1-2" data-name="Layer 1"><path class="cls-1" d="M87.42,122.88H1a1,1,0,0,1-1-1V73.18a1,1,0,0,1,1-1H87.42a1,1,0,0,1,1,1v48.69A1,1,0,0,1,87.42,122.88Zm-85.4-2H86.41V74.19H2Z"/><path class="cls-1" d="M87.42,86.81A13.65,13.65,0,0,1,73.79,73.18a1,1,0,0,1,1-1H87.42a1,1,0,0,1,1,1V85.8A1,1,0,0,1,87.42,86.81ZM75.85,74.19A11.62,11.62,0,0,0,86.41,84.75V74.19Z"/><path class="cls-1" d="M1,86.81a1,1,0,0,1-1-1V73.18a1,1,0,0,1,1-1H13.64a1,1,0,0,1,1,1A13.65,13.65,0,0,1,1,86.81ZM2,74.19V84.75A11.64,11.64,0,0,0,12.59,74.19Z"/><path class="cls-1" d="M13.67,122.88H1a1,1,0,0,1-1-1V109.24a1,1,0,0,1,1-1,13.66,13.66,0,0,1,13.64,13.38,1.09,1.09,0,0,1,0,.26A1,1,0,0,1,13.67,122.88ZM2,120.86H12.59A11.66,11.66,0,0,0,2,110.29Z"/><path class="cls-1" d="M87.42,122.88H74.8a1,1,0,0,1-1-1,13.65,13.65,0,0,1,13.63-13.64,1,1,0,0,1,1,1v12.63A1,1,0,0,1,87.42,122.88Zm-11.57-2H86.41V110.29A11.64,11.64,0,0,0,75.85,120.86Z"/><path class="cls-1" d="M44.21,113A15.47,15.47,0,1,1,59.68,97.52,15.48,15.48,0,0,1,44.21,113Zm0-28.91A13.45,13.45,0,1,0,57.66,97.52,13.45,13.45,0,0,0,44.21,84.08Z"/><path d="M43,106.46v-1.81a4.75,4.75,0,0,1-2.5-1.27,5.61,5.61,0,0,1-1.44-3.13L39,99.73l3.45-.4.08.46a2.42,2.42,0,0,0,.47,1.07l0,0V98.38a5.27,5.27,0,0,1-2.59-1.65,4.46,4.46,0,0,1-1-2.91,4.19,4.19,0,0,1,1.11-2.93A4.24,4.24,0,0,1,43,89.58v-1H45.4v1a4.17,4.17,0,0,1,3.53,3.63l.08.51-3.36.44-.1-.45a2,2,0,0,0-.15-.49v2.18a6,6,0,0,1,3,1.65,4.24,4.24,0,0,1,.93,2.82,4.57,4.57,0,0,1-1.17,3.2,5,5,0,0,1-2.76,1.54v1.84Zm1-2.67v1.67h.37v-1.68l.43-.06a4.23,4.23,0,0,0,2.59-1.3,3.63,3.63,0,0,0,.91-2.54,3.21,3.21,0,0,0-.7-2.18,5.71,5.71,0,0,0-2.85-1.43l-.38-.1V91.34l.69.3a2.35,2.35,0,0,1,1.32,1.42l1.42-.19A3.37,3.37,0,0,0,47,91.39a3.65,3.65,0,0,0-2.11-.88l-.44-.05v-.88H44v.89l-.45,0a3.36,3.36,0,0,0-2.26,1.06,3.19,3.19,0,0,0-.85,2.25,3.46,3.46,0,0,0,.75,2.28,4.59,4.59,0,0,0,2.44,1.43l.37.1v5.11l-.71-.33a3,3,0,0,1-1.11-.94,3.35,3.35,0,0,1-.55-1l-1.49.17a4.21,4.21,0,0,0,1.07,2.07,3.89,3.89,0,0,0,2.35,1.06Zm.37-1.05v-5l.64.19a2.88,2.88,0,0,1,1.48.87,2.22,2.22,0,0,1,.48,1.4,2.27,2.27,0,0,1-.56,1.56,2.64,2.64,0,0,1-1.44.84Zm1-3.58v2.21a1.37,1.37,0,0,0,.28-.26,1.25,1.25,0,0,0,.32-.9,1.11,1.11,0,0,0-.26-.77A1.21,1.21,0,0,0,45.41,99.16Zm-1.37-3-.71-.33a2.5,2.5,0,0,1-1.11-.87,2.11,2.11,0,0,1-.38-1.2,2.2,2.2,0,0,1,.41-1.29,2.32,2.32,0,0,1,1.12-.84l.67-.24Zm-1-3.07a1.18,1.18,0,0,0-.2.67,1,1,0,0,0,.2.63Z"/><path class="cls-1" d="M57,65.15A58.51,58.51,0,0,1,45.66,64a1,1,0,0,1-.79-.79C42,49,44.2,37.78,51.15,30.85c5-5,12-7.49,20.93-7.49a58.48,58.48,0,0,1,11.36,1.21,1,1,0,0,1,.8.79c2.84,14.2.67,25.38-6.28,32.31C73,62.64,66,65.15,57,65.15ZM46.72,62.1a55.61,55.61,0,0,0,10.3,1c8.37,0,14.94-2.31,19.51-6.89,6.34-6.33,8.36-16.63,5.86-29.82a55.77,55.77,0,0,0-10.31-1c-8.37,0-14.93,2.32-19.51,6.89C46.23,38.6,44.21,48.9,46.72,62.1Z"/><path class="cls-1" d="M35.46,65.41h0c-6.21,0-11.11-1.76-14.57-5.23-4.83-4.81-6.35-12.56-4.4-22.41a1,1,0,0,1,.8-.79,40.41,40.41,0,0,1,7.84-.83c6.2,0,11.11,1.75,14.58,5.21C44.54,46.2,46.06,54,44.09,63.79a1,1,0,0,1-.79.79A40.49,40.49,0,0,1,35.46,65.41ZM18.35,38.83c-1.62,8.83-.26,15.71,4,19.93,3.06,3.07,7.49,4.63,13.14,4.63h0a37.68,37.68,0,0,0,6.78-.66c1.63-8.83.27-15.71-4-19.94S27.15,37.21,18.35,38.83Z"/><path class="cls-1" d="M45.86,64a1,1,0,0,1-.7-.28,1,1,0,0,1,0-1.43L70.18,36.11a1,1,0,0,1,1.46,1.4l-25,26.15A1,1,0,0,1,45.86,64Z"/><path class="cls-1" d="M44.22,74.19a1,1,0,0,1-1-1V19.12a1,1,0,0,1,2,0V73.18A1,1,0,0,1,44.22,74.19Z"/><path class="cls-1" d="M61.37,47.79a1,1,0,0,1-1-.93L59.2,32.55a1,1,0,0,1,.93-1.09,1,1,0,0,1,1.08.93L62.37,46.7a1,1,0,0,1-.92,1.08Z"/><path class="cls-1" d="M51.78,57.8a1,1,0,0,1-.16-2L67,53.35a1,1,0,0,1,.31,2L51.94,57.78Z"/><path class="cls-1" d="M43.1,64.6a1,1,0,0,1-.72-.31l-17.29-18a1,1,0,1,1,1.46-1.4l17.28,18a1,1,0,0,1,0,1.43A1,1,0,0,1,43.1,64.6Z"/><path class="cls-1" d="M23.91,54.2a1,1,0,0,1-.95-.65,1,1,0,0,1,.59-1.3l6.39-2.41a1,1,0,0,1,1.3.58,1,1,0,0,1-.59,1.31l-6.38,2.41A1.13,1.13,0,0,1,23.91,54.2Z"/><path class="cls-1" d="M37.38,58.62h-.07a1,1,0,0,1-.94-1.07L37,48a1,1,0,0,1,2,.13l-.62,9.57A1,1,0,0,1,37.38,58.62Z"/><path class="cls-1" d="M7.81,37.55a4.62,4.62,0,1,1,4.63-4.62A4.63,4.63,0,0,1,7.81,37.55Zm0-7.22a2.6,2.6,0,1,0,2.61,2.6A2.6,2.6,0,0,0,7.81,30.33Z"/><path class="cls-1" d="M80.48,12.15A4.62,4.62,0,1,1,85.1,7.53,4.63,4.63,0,0,1,80.48,12.15Zm0-7.22a2.6,2.6,0,1,0,2.6,2.6A2.6,2.6,0,0,0,80.48,4.93Z"/><path class="cls-1" d="M38.91,21.7h0c-4.56,0-8.17-1.3-10.72-3.86C24.63,14.28,23.5,8.6,24.93,1.4a1,1,0,0,1,.8-.8C32.92-.82,38.62.29,42.18,3.84s4.68,9.25,3.24,16.46a1,1,0,0,1-.79.79A29.66,29.66,0,0,1,38.91,21.7ZM26.79,2.46c-1.1,6.18-.13,11,2.82,14,2.17,2.16,5.3,3.26,9.3,3.26h0a27.07,27.07,0,0,0,4.66-.44c1.1-6.2.14-11-2.81-14S33,1.36,26.79,2.46Z"/><path class="cls-1" d="M44.43,21.11a1,1,0,0,1-.73-.31L35,11.68a1,1,0,0,1,1.46-1.4l8.74,9.13a1,1,0,0,1-.73,1.7Z"/></g></g></svg>