<?xml version="1.0" encoding="UTF-8"?><svg id="Layer_2" xmlns="http://www.w3.org/2000/svg" xmlns:xlink="http://www.w3.org/1999/xlink" viewBox="0 0 159.12 24.74"><defs><style>.cls-1{fill:#fff;}.cls-2{fill:#f60;}.cls-3,.cls-4{isolation:isolate;}.cls-4{font-family:MyriadPro-Regular, 'Myriad Pro';font-size:5.25px;}.cls-5{stroke:#000;stroke-miterlimit:10;stroke-width:.25px;}.cls-5,.cls-6{fill:none;}.cls-7{clip-path:url(#clippath);}</style><clipPath id="clippath"><circle class="cls-6" cx="12.37" cy="12.37" r="12.37"/></clipPath></defs><g id="Layer_2-2"><circle class="cls-2" cx="12.37" cy="12.37" r="12.37"/><path d="m57.2,19.17h-1.95v-6.26h-19.98v6.26h-1.95V5.56h1.95v5.7h19.98v-5.7h1.95v13.62h0Z"/><path d="m89.97,18.21c0,.28-.38.52-1.15.7-.76.18-1.74.27-2.93.27h-15.53c-1.19,0-2.16-.09-2.92-.27-.75-.18-1.13-.41-1.13-.7V5.56h1.95v11.7h19.76V5.56h1.95v12.65Z"/><path d="m121.94,18.21c0,.28-.38.52-1.13.7s-1.73.27-2.92.27h-18.81V5.56h18.66c1.19,0,2.16.09,2.92.27.75.18,1.13.41,1.13.7v4.05c0,.36-.6,1.22-1.95,1.48,0,0,2.1,1.14,2.1,1.53v4.63h0Zm-2.1-6.67v-4.92h-18.81v4.92h18.81Zm.15,6.56v-5.51h-18.96v5.51h18.96Z"/><path d="m153.56,18.21c0,.28-.38.52-1.13.7s-1.73.27-2.92.27h-18.81V5.56h18.66c1.19,0,2.16.09,2.92.27.75.18,1.13.41,1.13.7v4.05c0,.36-.6,1.22-1.95,1.48,0,0,2.1,1.14,2.1,1.53v4.63h0Zm-2.1-6.67v-4.92h-18.81v4.92h18.81Zm.15,6.56v-5.51h-18.96v5.51h18.96Z"/><circle class="cls-5" cx="157.03" cy="5.52" r="1.96"/><g class="cls-3"><text class="cls-4" transform="translate(155.7 6.85)"><tspan x="0" y="0">c</tspan></text></g><g class="cls-7"><path class="cls-1" d="m24.47,17.23H3.56V7.51h20.91v-1.95H5.66c-1.19,0-2.16.09-2.92.27-.75.18-1.13.41-1.13.7v11.69c0,.28.38.52,1.13.7s1.73.27,2.92.27h18.81v-1.95h0Z"/></g></g></svg>