<svg xmlns="http://www.w3.org/2000/svg" xmlns:xlink="http://www.w3.org/1999/xlink" viewBox="0 0 72.92 71.63"><defs><style>.cls-1,.cls-3,.cls-8{fill:none;}.cls-2{isolation:isolate;}.cls-12,.cls-3,.cls-4,.cls-5,.cls-6,.cls-7{stroke:#47361d;}.cls-12,.cls-3,.cls-4,.cls-5,.cls-6,.cls-7,.cls-8{stroke-miterlimit:10;}.cls-4{fill:url(#radial-gradient);}.cls-5{fill:url(#radial-gradient-2);}.cls-6{fill:#f5a11d;}.cls-7{fill:url(#radial-gradient-3);}.cls-8{stroke:#000;stroke-width:0.25px;}.cls-9{fill:#47361d;}.cls-10,.cls-15{fill:#fff;}.cls-10{mix-blend-mode:soft-light;}.cls-11{clip-path:url(#clip-path);}.cls-12{fill:url(#linear-gradient);}.cls-13{mix-blend-mode:overlay;}.cls-14{clip-path:url(#clip-path-2);}</style><radialGradient id="radial-gradient" cx="24.24" cy="24.92" r="31.61" gradientUnits="userSpaceOnUse"><stop offset="0" stop-color="#54826b"/><stop offset="0.13" stop-color="#5c7f68"/><stop offset="0.34" stop-color="#737860"/><stop offset="0.6" stop-color="#986c53"/><stop offset="0.9" stop-color="#cb5b41"/><stop offset="1" stop-color="#de553a"/></radialGradient><radialGradient id="radial-gradient-2" cx="19.36" cy="21.23" r="39.35" xlink:href="#radial-gradient"/><radialGradient id="radial-gradient-3" cx="19.35" cy="23.61" r="51.03" xlink:href="#radial-gradient"/><clipPath id="clip-path" transform="translate(-0.04)"><path class="cls-1" d="M14.87,38c0,8.57-6.85,20-9.25,15.54C4,50.45-.33,45.88,0,38c-.16-4.46,2.66-9.4,5.6-15.5C7.84,17.84,14.91,29.38,14.87,38Z"/></clipPath><linearGradient id="linear-gradient" x1="48.88" y1="62.26" x2="19.22" y2="22.02" gradientUnits="userSpaceOnUse"><stop offset="0" stop-color="#54826b"/><stop offset="1" stop-color="#de553a"/></linearGradient><clipPath id="clip-path-2" transform="translate(-0.04)"><path class="cls-1" d="M60.21,56.81a30.72,30.72,0,0,1-4.77,4.42c-.58.43-1.17.84-1.78,1.22a28.16,28.16,0,0,1-3.35,1.88c-.62.3-1.23.56-1.86.82s-1,.37-1.49.54a25.47,25.47,0,0,1-3,.84c-.61.14-1.23.26-1.85.36a30.51,30.51,0,0,1-4.81.38l-1.08,0-.45,0L35,67.17c-.36,0-.71,0-1.06-.09s-.71-.08-1.06-.14-.9-.14-1.34-.23l-.39-.08-.52-.12c-.38-.08-.74-.17-1.09-.26l-.8-.23-.51-.16-.58-.19-.13,0c-.24-.08-.47-.15-.71-.25h0c-.21-.07-.41-.15-.62-.24s-.52-.21-.77-.32-.46-.19-.69-.3h0c-.08-.36-.14-.71-.21-1.06s-.08-.42-.11-.63-.08-.49-.11-.73a3.88,3.88,0,0,1,0-.48c0-.22-.05-.44-.06-.67s0-.42-.05-.64c0-.5,0-1,0-1.52a.14.14,0,0,1,0-.09c0-.23,0-.45,0-.68a2.45,2.45,0,0,1,0-.27,2.56,2.56,0,0,1,0-.39.89.89,0,0,1,0-.23,1.79,1.79,0,0,1,0-.23.63.63,0,0,1,0-.19,4.56,4.56,0,0,1,0-.51s0-.06,0-.09l.12-.81A2.47,2.47,0,0,1,24.4,55c0-.28.1-.55.15-.81a.43.43,0,0,1,0-.11c.06-.29.13-.58.21-.86s.15-.58.24-.87.14-.48.22-.72.14-.4.21-.58h0a0,0,0,0,1,0,0s0,0,0-.08a.21.21,0,0,1,.05-.13,7.69,7.69,0,0,1,.28-.72c.13-.33.27-.65.42-1h0c.12-.27.25-.53.39-.8.3-.57.62-1.14,1-1.69l0,0c.37-.58.77-1.14,1.18-1.7.2-.26.4-.52.62-.77l0,0v0a2.7,2.7,0,0,1,.28-.31,1.25,1.25,0,0,1,.15-.19l.15-.16a.81.81,0,0,1,.12-.14c.18-.19.35-.38.54-.57l.77-.79,4.94-5,.52-.51c.28-.29.54-.58.8-.89q.19-.22.36-.45a4.85,4.85,0,0,0,.35-.48q.18-.24.33-.48a15.3,15.3,0,0,0,1.09-2c.14-.3.25-.61.37-.93a32.8,32.8,0,0,0,.87-3.53S41,24.88,41,24.83v0c0-.05,0-.1,0-.15a7.67,7.67,0,0,0-.11-.8c0-.15,0-.31-.08-.47s-.07-.36-.1-.54-.09-.36-.14-.54c-.12-.42-.25-.84-.41-1.25L40,20.5c-.08-.18-.16-.36-.25-.54s-.23-.48-.35-.72a2.77,2.77,0,0,0-.2-.34c-.06-.12-.13-.23-.2-.35s-.33-.53-.52-.79l-.08-.13c-.11-.16-.23-.3-.34-.45L37.89,17l0-.05a5.2,5.2,0,0,0-.37-.43c-.08-.09-.16-.19-.25-.28l7.69,7.81,2.24,2.28.69.73c.23.24.45.49.67.74s.49.56.74.84l1.3,1.59c.34.45.68.9,1,1.36s.64.92,1,1.38.61.94.9,1.41.58,1,.86,1.44.54,1,.79,1.47.36.7.53,1.05.33.68.47,1l0,.06c.11.21.2.42.29.64l.34.79c.08.18.15.35.21.53l.08.19c.15.36.28.71.42,1.08s.31.85.45,1.28c.08.25.17.5.24.74s.08.22.11.33l.12.42c0,.14.09.28.13.43a.74.74,0,0,1,0,.14h0a.24.24,0,0,1,0,.08c0,.16.08.32.13.48l.12.44a1.41,1.41,0,0,1,.06.22l.21.85c.1.42.19.83.28,1.25,0,.22.1.44.14.67l.06.29c0,.21.07.41.1.62.07.38.14.77.19,1.15a.68.68,0,0,1,0,.14L60,53.28s0,0,0,.07c0,.37.09.75.12,1.12l0,.29a.66.66,0,0,1,0,.14.13.13,0,0,1,0,.06,2.64,2.64,0,0,1,0,.28c0,.44.06.88.08,1.32a.71.71,0,0,1,0,.14Z"/></clipPath></defs><title>Asset 9</title><g class="cls-2"><g id="Layer_2" data-name="Layer 2"><g id="Layer_1-2" data-name="Layer 1"><path class="cls-3" d="M8.31,48.84l-2.49,2.5c-.26-.26-.5-.52-.75-.79v0a3.73,3.73,0,0,1-.16-.35,2.56,2.56,0,0,1-.11-.24l0-.08L8.1,48.4h0C8.18,48.55,8.24,48.7,8.31,48.84Z" transform="translate(-0.04)"/><path class="cls-3" d="M8.76,56.8a.19.19,0,0,1-.06-.07,2.48,2.48,0,0,1-.19-.26v0c-.11-.15-.22-.31-.32-.47C8.37,56.26,8.56,56.53,8.76,56.8Z" transform="translate(-0.04)"/><path class="cls-3" d="M4.76,49.86a3.09,3.09,0,0,0,.14.32l-.15-.32Z" transform="translate(-0.04)"/><path class="cls-3" d="M10.42,12.75q-.81.95-1.56,1.95C9.35,14,9.87,13.38,10.42,12.75Z" transform="translate(-0.04)"/><path class="cls-3" d="M8.76,56.8a.19.19,0,0,1-.06-.07,2.48,2.48,0,0,1-.19-.26v0c-.22-.3-.44-.61-.64-.92l.32.45C8.37,56.26,8.56,56.53,8.76,56.8Z" transform="translate(-0.04)"/><path class="cls-3" d="M10.71,59.2l-.09-.09.07.06Z" transform="translate(-0.04)"/><path class="cls-3" d="M11.28,59.82l.06.07c-.22-.23-.44-.45-.63-.69Z" transform="translate(-0.04)"/><path class="cls-3" d="M12,60.54A7.6,7.6,0,0,1,11.4,60l-.06-.07.21.22.27.28Z" transform="translate(-0.04)"/><path class="cls-3" d="M12.66,61.23h0l-.54-.54Z" transform="translate(-0.04)"/><path class="cls-3" d="M23.15,7.44c-.29.14-.57.29-.85.44l.29-.16Z" transform="translate(-0.04)"/><path class="cls-3" d="M24,7l-.86.41.52-.26Z" transform="translate(-0.04)"/><path class="cls-3" d="M27.54,5.67c-.9.29-1.79.62-2.66,1L25,6.58c.42-.18.85-.35,1.28-.5L26.64,6Z" transform="translate(-0.04)"/><path class="cls-3" d="M29.12,43.92l0,0v0A22.3,22.3,0,0,0,17.72,60.8" transform="translate(-0.04)"/><path class="cls-4" d="M67,46.45a31.56,31.56,0,0,1-6.1,10.31c0-.2,0-.39,0-.59a8.47,8.47,0,0,0-.07-.88,2.83,2.83,0,0,0,0-.29.13.13,0,0,0,0-.06.66.66,0,0,0,0-.14l0-.29q0-.57-.12-1.14s0,0,0-.07c0-.36-.09-.73-.16-1.1a.68.68,0,0,0,0-.14c0-.39-.11-.78-.19-1.17,0-.21-.07-.41-.11-.62L60,50c0-.23-.08-.46-.14-.68-.09-.42-.19-.84-.29-1.26s-.13-.57-.22-.86a2,2,0,0,0-.06-.23l-.12-.44A3,3,0,0,0,59,46a.24.24,0,0,0,0-.08h0a.74.74,0,0,0,0-.14c0-.15-.08-.29-.13-.44s-.08-.28-.13-.42q-.15-.54-.36-1.08c-.14-.44-.3-.87-.46-1.3a.56.56,0,0,0,0-.12c-.12-.33-.25-.65-.39-1l-.08-.2c-.07-.18-.14-.35-.22-.53s-.23-.53-.35-.8-.19-.44-.3-.65l0-.06c-.15-.34-.31-.68-.49-1s-.36-.71-.54-1.07-.54-1-.82-1.48-.57-1-.88-1.46-.6-1-.93-1.43-.64-.94-1-1.4-.69-.92-1-1.37-.88-1.08-1.34-1.61c-.24-.29-.5-.58-.76-.86s-.44-.49-.69-.74-.45-.49-.69-.73L63.8,42.52A22.88,22.88,0,0,1,67,46.45Z" transform="translate(-0.04)"/><path class="cls-5" d="M60.74,56.88a31.08,31.08,0,0,1-4.91,4.47c-.6.44-1.21.85-1.83,1.24a29.75,29.75,0,0,1-3.46,1.9c-.63.3-1.26.57-1.91.83s-1,.38-1.54.55a29.19,29.19,0,0,1-3.08.85c-.63.14-1.26.26-1.9.36a31.22,31.22,0,0,1-5,.39l-1.11,0-.46,0-.86-.06c-.37,0-.73-.05-1.09-.1s-.73-.08-1.09-.14-.93-.14-1.38-.23l-.41-.08-.53-.12c-.39-.08-.76-.17-1.12-.27l-.83-.23L27.75,66l-.6-.19-.14,0c-.24-.08-.48-.16-.73-.26h0l-.64-.24L24.84,65c-.24-.09-.47-.2-.71-.31h0c-.08-.36-.15-.72-.22-1.07s-.08-.43-.11-.64-.08-.49-.11-.74,0-.32-.05-.48-.05-.45-.06-.68,0-.43-.05-.65c0-.51,0-1,0-1.54a.14.14,0,0,1,0-.09c0-.23,0-.46,0-.69a2.45,2.45,0,0,1,0-.27,2.69,2.69,0,0,1,0-.4.89.89,0,0,1,0-.23,1.79,1.79,0,0,1,0-.23.63.63,0,0,1,0-.19c0-.17,0-.35.05-.52s0-.06,0-.09l.12-.82c0-.1,0-.2.06-.3,0-.28.1-.55.16-.82a.43.43,0,0,1,0-.11q.09-.43.21-.87c.07-.29.16-.59.25-.88s.14-.49.23-.73l.21-.59h0a0,0,0,0,1,0,0s0,0,0-.08a.21.21,0,0,1,.05-.13,6.52,6.52,0,0,1,.29-.73c.13-.33.27-.66.43-1h0c.12-.27.26-.54.4-.81q.46-.87,1-1.71l0,0c.38-.59.79-1.16,1.22-1.72q.3-.41.63-.78s0,0,0,0v0a2.79,2.79,0,0,1,.28-.32,1.35,1.35,0,0,1,.16-.19l.15-.16a.86.86,0,0,1,.13-.14c.18-.2.36-.39.55-.58l.8-.8,5.09-5.09.53-.52c.29-.29.56-.59.83-.9.13-.15.25-.3.37-.46s.25-.32.36-.48.23-.33.34-.49a15.74,15.74,0,0,0,1.12-2.05c.14-.31.26-.62.38-.94a14.74,14.74,0,0,0,.72-2.91c0-.23.06-.47.08-.7a.17.17,0,0,0,0-.07,4.19,4.19,0,0,0,0-.5v-.05a10.09,10.09,0,0,0,0-1.35c0-.19,0-.39,0-.58a.86.86,0,0,0,0-.16v-.05c0-.05,0-.1,0-.15a7.5,7.5,0,0,0-.11-.81c0-.16-.05-.32-.08-.48s-.07-.37-.11-.55-.09-.36-.14-.54c-.12-.43-.26-.85-.42-1.27l-.21-.54c-.08-.18-.16-.36-.25-.54s-.24-.49-.37-.73a4,4,0,0,0-.2-.35c-.06-.12-.14-.23-.21-.35s-.34-.54-.53-.8l-.09-.13c-.11-.16-.23-.31-.35-.46l-.14-.17,0,0c-.13-.15-.25-.3-.38-.44l-.26-.28L45,23.72,47.3,26c.24.25.48.49.71.74s.46.49.69.74.51.57.76.86c.46.53.9,1.07,1.34,1.61s.7.91,1,1.37.66.93,1,1.4.63,1,.93,1.43.6,1,.88,1.46.56,1,.82,1.48.37.71.54,1.07.34.68.49,1l0,.06c.11.21.21.43.3.65s.24.53.35.8.15.35.22.53l.08.2c.15.36.29.72.43,1.09s.32.86.46,1.3c.09.25.18.5.25.75s.08.22.11.33.09.28.13.42.09.29.13.44a.74.74,0,0,1,0,.14h0A.24.24,0,0,1,59,46c.05.16.09.33.14.49l.12.44a2,2,0,0,1,.06.23c.08.29.15.57.22.86s.2.84.29,1.26c.05.23.1.45.14.68l.06.3c0,.21.08.41.11.62.07.39.14.78.19,1.17a.68.68,0,0,1,0,.14c.06.36.11.73.16,1.1,0,0,0,.05,0,.07q.07.57.12,1.14l0,.29a.66.66,0,0,1,0,.14.13.13,0,0,1,0,.06,2.83,2.83,0,0,1,0,.29c0,.44.07.89.09,1.33a.76.76,0,0,1,0,.15Z" transform="translate(-0.04)"/><path class="cls-6" d="M12.3,44.86h0l-.1.11,0,0s0,0,0,0h0l-.84.85-1.5,1.49L8.31,48.84l-2.49,2.5c-.26-.26-.5-.52-.75-.79v0A18,18,0,0,1,2.63,30.14,9,9,0,0,1,12.3,44.86Z" transform="translate(-0.04)"/><path class="cls-7" d="M36.78,36.14a14.58,14.58,0,0,1-18.21,2,14.4,14.4,0,0,1-2.43-2L12.2,32.2a9,9,0,0,0-9.57-2.06,18.59,18.59,0,0,1,2.25-3.31c.3-.34.61-.68.94-1C11.9,22.73,14.67,15.12,21,12.29a16.13,16.13,0,0,1,1.78-.59,14.58,14.58,0,0,1,14,3.79l0,0a14.6,14.6,0,0,1,0,20.62Z" transform="translate(-0.04)"/><path class="cls-6" d="M11.26,45.9l.84-.85h0l0,0,0,0,.1-.11h0a9,9,0,0,0-.1-12.66l3.94,3.94a14.4,14.4,0,0,0,2.43,2C19.15,42.09,11.26,45.9,11.26,45.9Z" transform="translate(-0.04)"/><line class="cls-8" x1="18.54" y1="38.1" x2="18.54" y2="38.1"/><path class="cls-9" d="M22.8,25.53c0,.06-.07.15,0,0l.07-.12a1.32,1.32,0,0,0,.15-.24s-.13.15,0,0l.12-.13a1.29,1.29,0,0,1,.21-.19s.15-.12,0,0,0,0,0,0l.24-.15.13-.06s.17-.1,0,0,0,0,.05,0l.17-.05.29-.08.17,0c-.09,0-.11,0,0,0a5.32,5.32,0,0,1,.69,0c.1,0,.08,0,0,0l.17,0,.38.1a2.13,2.13,0,0,1,.33.11l.09,0,.11.05a1,1,0,0,0,1-1.73,5.2,5.2,0,0,0-3.83-.39A4.08,4.08,0,0,0,20.88,25a1,1,0,0,0,.69,1.23,1,1,0,0,0,1.23-.7Z" transform="translate(-0.04)"/><ellipse class="cls-10" cx="28.28" cy="27.55" rx="2.25" ry="0.77" transform="translate(-4.6 5.63) rotate(-10.54)"/><path class="cls-1" d="M60.74,57a30.34,30.34,0,0,1-4.91,4.35c-.6.44-1.21.85-1.83,1.24a29.75,29.75,0,0,1-3.46,1.9c-.63.3-1.26.57-1.91.83s-1,.38-1.54.55a29.19,29.19,0,0,1-3.08.85c-.63.14-1.26.26-1.9.36a31.22,31.22,0,0,1-5,.39l-1.11,0-.46,0-.86-.06c-.37,0-.73-.05-1.09-.1s-.73-.08-1.09-.14-.93-.14-1.38-.23l-.41-.08-.53-.12c-.39-.08-.76-.17-1.12-.27l-.83-.23L27.75,66l-.6-.19-.14,0c-.24-.08-.48-.16-.73-.26h0l-.64-.24L24.84,65c-.24-.09-.47-.2-.71-.31h0c-.08-.36-.15-.72-.22-1.07s-.08-.43-.11-.64-.08-.49-.11-.74,0-.32-.05-.48-.05-.45-.06-.68,0-.43-.05-.65c0-.51,0-1,0-1.54a.14.14,0,0,1,0-.09c0-.23,0-.46,0-.69a2.45,2.45,0,0,1,0-.27,2.69,2.69,0,0,1,0-.4.89.89,0,0,1,0-.23,1.79,1.79,0,0,1,0-.23c0-.24.05-.47.08-.71,0,0,0-.06,0-.09l.12-.82c0-.1,0-.2.06-.3,0-.28.1-.55.16-.82a.43.43,0,0,1,0-.11q.09-.43.21-.87c.07-.29.16-.59.25-.88s.14-.49.23-.73l.21-.59h0a0,0,0,0,1,0,0s0,0,0-.08a.21.21,0,0,1,.05-.13,6.52,6.52,0,0,1,.29-.73c.13-.33.27-.66.43-1h0c.12-.27.26-.54.4-.81q.46-.87,1-1.71l0,0a19.92,19.92,0,0,1,1.22-1.72q.3-.41.63-.78s0,0,0,0v0a2.79,2.79,0,0,1,.28-.32,1.35,1.35,0,0,1,.16-.19l.15-.16a.86.86,0,0,1,.13-.14c.18-.2.36-.39.55-.58l.8-.8,5.09-5.09.53-.52c.29-.29.56-.59.83-.9.13-.15.25-.3.37-.46s.25-.32.36-.48.23-.33.34-.49a15.74,15.74,0,0,0,1.12-2.05c.14-.31.26-.62.38-.94a14.74,14.74,0,0,0,.72-2.91c0-.23.06-.47.08-.7a.17.17,0,0,0,0-.07,4.19,4.19,0,0,0,0-.5v-.05a10.09,10.09,0,0,0,0-1.35v-.13c0-.15,0-.3,0-.45a.86.86,0,0,0,0-.16v-.05c0-.05,0-.1,0-.15a7.5,7.5,0,0,0-.11-.81c0-.16-.05-.32-.08-.48s-.07-.37-.11-.55-.09-.36-.14-.54c-.12-.43-.26-.85-.42-1.27l-.21-.54c-.08-.18-.16-.36-.25-.54s-.24-.49-.37-.73a4,4,0,0,0-.2-.35c-.06-.12-.14-.23-.21-.35s-.34-.54-.53-.8l-.09-.13c-.11-.16-.23-.31-.35-.46l-.14-.17,0,0c-.13-.15-.25-.3-.38-.44l-.26-.28L45,23.72,47.3,26c.24.25.48.49.71.74s.46.49.69.74.51.57.76.86c.46.53.9,1.07,1.34,1.61s.7.91,1,1.37.66.93,1,1.4.63,1,.93,1.43.6,1,.88,1.46.56,1,.82,1.48.37.71.54,1.07.34.68.49,1l0,.06c.11.21.21.43.3.65s.24.53.35.8.15.35.22.53l.08.2c.15.36.29.72.43,1.09s.32.86.46,1.3c.09.25.18.5.25.75s.08.22.11.33.09.28.13.42.09.29.13.44a.74.74,0,0,1,0,.14h0A.24.24,0,0,1,59,46c.05.16.09.33.14.49l.12.44a2,2,0,0,1,.06.23c.08.29.15.57.22.86s.2.84.29,1.26c.05.23.1.45.14.68l.06.3c0,.21.08.41.11.62.07.39.14.78.19,1.17a.68.68,0,0,1,0,.14c.06.36.11.73.16,1.1,0,0,0,.05,0,.07q.07.57.12,1.14l0,.29a.66.66,0,0,1,0,.14.13.13,0,0,1,0,.06,2.83,2.83,0,0,1,0,.29,8.47,8.47,0,0,1,.07.88c0,.15,0,.3,0,.45a.76.76,0,0,1,0,.15Z" transform="translate(-0.04)"/><path class="cls-6" d="M11.26,45.9l.84-.85h0l0,0,0,0,.1-.11h0a9,9,0,0,0-.1-12.66l3.94,3.94a14.4,14.4,0,0,0,2.43,2C19.15,42.09,11.26,45.9,11.26,45.9Z" transform="translate(-0.04)"/><path class="cls-3" d="M8.31,48.84l-2.49,2.5c-.26-.26-.5-.52-.75-.79v0a3.73,3.73,0,0,1-.16-.35,2.56,2.56,0,0,1-.11-.24l0-.08L8.1,48.4h0C8.18,48.55,8.24,48.7,8.31,48.84Z" transform="translate(-0.04)"/><path class="cls-3" d="M8.76,56.8a.19.19,0,0,1-.06-.07,2.48,2.48,0,0,1-.19-.26v0c-.11-.15-.22-.31-.32-.47C8.37,56.26,8.56,56.53,8.76,56.8Z" transform="translate(-0.04)"/><path class="cls-3" d="M60.87,56.75a32.82,32.82,0,0,1-5,4.6c-.6.44-1.21.85-1.83,1.24a29.75,29.75,0,0,1-3.46,1.9c-.63.3-1.26.57-1.91.83s-1,.38-1.54.55a29.19,29.19,0,0,1-3.08.85c-.63.14-1.26.26-1.9.36a31.22,31.22,0,0,1-5,.39l-1.11,0-.46,0-.86-.06c-.37,0-.73-.05-1.09-.1s-.73-.08-1.09-.14-.93-.14-1.38-.23l-.41-.08-.53-.12c-.39-.08-.76-.17-1.12-.27l-.83-.23L27.75,66l-.6-.19-.14,0c-.24-.08-.48-.16-.73-.26h0l-.64-.24L24.84,65c-.24-.09-.47-.2-.71-.31h0l-.65-.31-.05,0a31.64,31.64,0,0,1-5.68-3.52A31.13,31.13,0,0,1,9,50.21c-.24-.45-.46-.91-.66-1.37l-2.49,2.5c-.26-.26-.5-.52-.75-.79.08.19.16.38.25.56s.33.66.46.91.21.41.32.61c.28.5.56,1,.85,1.48l.6,1c.1.15.2.31.31.46l.32.45c.19.28.38.55.58.82l.63.82c.19.25.39.49.59.73l.06.07.58.68h0l.07.06,0,0,.57.62.06.07.06.07.15.15.27.28.14.15c0,.05.11.1.16.16l.54.53h0l.11.1.61.56c.24.22.48.44.73.65l.22.19.05,0,.23.19.1.09.17.14c.42.34.85.67,1.28,1,.2.16.4.3.61.44l0,0,.83.56h0l0,0h0l.93.59h0l.95.56.74.42c.5.27,1,.54,1.52.78l.76.36h0c.52.24,1,.45,1.56.67l.63.24.85.3.14,0,1.1.35,1,.29c.49.14,1,.26,1.5.37.76.18,1.53.31,2.3.44h0l.51.07.53.07.41,0,1.21.12h.22l.93,0h0c.2,0,.41,0,.61,0l.94,0h.63c.7,0,1.4,0,2.09-.1s1.32-.11,2-.2,1.4-.21,2.08-.34l.59-.13c.94-.19,1.86-.43,2.76-.7a32.28,32.28,0,0,0,3.38-1.21c.68-.27,1.35-.58,2-.91a32.77,32.77,0,0,0,5-3,25.4,25.4,0,0,0,2.12-1.63c.35-.29.69-.59,1-.89a0,0,0,0,0,0,0,35.45,35.45,0,0,0,8.3-11.23A35.3,35.3,0,0,0,37.15.5c-.41,0-.83,0-1.24,0s-.73,0-1.1,0l-1.15.1L32.51.81A35.5,35.5,0,0,0,15.78,7.72l-.72.57-.35.28c-.27.22-.55.44-.81.67A36.74,36.74,0,0,0,11,12.08c-.18.19-.36.39-.52.59l-.08.08q-.81.95-1.56,1.95c-.51.68-1,1.39-1.46,2.11a1.31,1.31,0,0,0,.43,1.87l.86.51a1.38,1.38,0,0,0,.68.18,1.34,1.34,0,0,0,1.12-.6c.41-.65.84-1.27,1.3-1.88a27.18,27.18,0,0,1,1.94-2.35c.34-.37.68-.74,1-1.1l.37-.36A30.17,30.17,0,0,1,18,10.63c.27-.21.55-.41.83-.6v0c.27-.2.55-.39.83-.56s.86-.55,1.3-.82c.23-.14.45-.27.68-.39L22.13,8l.17-.09.29-.16.56-.28.52-.26L24,7l.87-.38L25,6.58c.42-.18.85-.35,1.28-.5L26.64,6c.3-.11.6-.21.9-.29l.05,0,.34-.11.52-.15.05,0,.93-.25c.51-.12,1-.24,1.52-.34.33-.08.68-.13,1-.19s.69-.11,1-.15.69-.09,1-.12l1-.08c.39,0,.79,0,1.18-.06l.95,0a31.63,31.63,0,0,1,23.71,52.6" transform="translate(-0.04)"/><path class="cls-3" d="M4.76,49.86a3.09,3.09,0,0,0,.14.32l-.15-.32Z" transform="translate(-0.04)"/><path class="cls-3" d="M10.42,12.75q-.81.95-1.56,1.95C9.35,14,9.87,13.38,10.42,12.75Z" transform="translate(-0.04)"/><path class="cls-3" d="M8.76,56.8a.19.19,0,0,1-.06-.07,2.48,2.48,0,0,1-.19-.26v0c-.22-.3-.44-.61-.64-.92l.32.45C8.37,56.26,8.56,56.53,8.76,56.8Z" transform="translate(-0.04)"/><path class="cls-3" d="M10.71,59.2l-.09-.09.07.06Z" transform="translate(-0.04)"/><path class="cls-3" d="M11.28,59.82l.06.07c-.22-.23-.44-.45-.63-.69Z" transform="translate(-0.04)"/><path class="cls-3" d="M12,60.54A7.6,7.6,0,0,1,11.4,60l-.06-.07.21.22.27.28Z" transform="translate(-0.04)"/><path class="cls-3" d="M12.66,61.23h0l-.54-.54Z" transform="translate(-0.04)"/><path class="cls-3" d="M23.15,7.44c-.29.14-.57.29-.85.44l.29-.16Z" transform="translate(-0.04)"/><path class="cls-3" d="M24,7l-.86.41.52-.26Z" transform="translate(-0.04)"/><path class="cls-3" d="M27.54,5.67c-.9.29-1.79.62-2.66,1L25,6.58c.42-.18.85-.35,1.28-.5L26.64,6Z" transform="translate(-0.04)"/><g class="cls-11"><path class="cls-6" d="M12.3,44.86h0l-.1.11,0,0,0,0h0l-.84.85-1.5,1.49-3.94,4a18,18,0,0,1-3.19-21.2A9,9,0,0,1,12.3,44.86Z" transform="translate(-0.04)"/><path class="cls-12" d="M36.78,36.14a14.58,14.58,0,0,1-18.21,2,14.4,14.4,0,0,1-2.43-2L12.2,32.2a9,9,0,0,0-9.57-2.06,18.59,18.59,0,0,1,2.25-3.31c.3-.34.61-.68.94-1C11.9,22.73,14.67,15.12,21,12.29a16.13,16.13,0,0,1,1.78-.59,14.58,14.58,0,0,1,14,3.79l0,0a14.6,14.6,0,0,1,0,20.62Z" transform="translate(-0.04)"/></g><g class="cls-13"><g class="cls-14"><path class="cls-15" d="M41,30.07a2,2,0,0,1,.07.26,1.74,1.74,0,0,1,0,.22c0,.08,0,.16,0,.23v0c0,.2.07.42.09.63a2,2,0,0,1,0,.34,1.1,1.1,0,0,1,0,.26c0,.15,0,.31,0,.46s0,.3,0,.44a1.88,1.88,0,0,1,0,.34.76.76,0,0,1,0,.15c0,.1,0,.21,0,.31s0,.2,0,.3,0,.26-.07.38l0,.06a8.14,8.14,0,0,1-.44,1.43l-.12.31-.09.21a9.63,9.63,0,0,1-1.16,1.84c-.13.18-.27.34-.41.5l-.36.37a3.08,3.08,0,0,1-.27.25,8.51,8.51,0,0,1-.66.56,2.29,2.29,0,0,1-.33.24,4.53,4.53,0,0,1-.46.3,6.45,6.45,0,0,1-.93.51,5.45,5.45,0,0,1-.55.25l-.52.2-.33.11-.61.16a8,8,0,0,1-2.15.27,17,17,0,0,0-1.9,1.89,6.57,6.57,0,0,0,1.73.12,11.73,11.73,0,0,0,3.37-.48,11.36,11.36,0,0,0,1.28-.44,8.53,8.53,0,0,1-.85,1.61,8.76,8.76,0,0,1-1,1.32A9.09,9.09,0,0,1,33,47.17a10,10,0,0,1-1.87,1.11,9.88,9.88,0,0,1-4.11.89,9.63,9.63,0,0,1-1.43-.11h0c-.16.31-.3.63-.43,1a6.07,6.07,0,0,0-.29.7.21.21,0,0,0-.05.13.15.15,0,0,0,0,.07s0,0,0,0h0c.27.06.54.1.81.14l.58,0h0c.27,0,.56,0,.84,0a2,2,0,0,0,.35,0c.24,0,.47,0,.71,0l.72-.08a12,12,0,0,0,1.3-.26l.62-.19a4.05,4.05,0,0,0,.55-.2,4.66,4.66,0,0,0,.56-.22c.3-.13.61-.28.9-.43a12.38,12.38,0,0,0,1.72-1.12,5.86,5.86,0,0,0,.54-.47,3.08,3.08,0,0,0,.27-.25l0,0a3.61,3.61,0,0,0,.35-.33,1.56,1.56,0,0,1,0,.3,2.81,2.81,0,0,1,0,.5,3.85,3.85,0,0,1-.07.49,9,9,0,0,1-.2,1,9.14,9.14,0,0,1-1,2.37c-.1.17-.22.34-.33.49a2,2,0,0,1-.18.25l0,0c-.09.13-.2.24-.29.37A9.17,9.17,0,0,1,32,54.72a9.87,9.87,0,0,1-6.06,2.06q-.36,0-.69,0a10,10,0,0,1-1.75-.27c0,.21,0,.42-.06.63a2.43,2.43,0,0,0,0,.38,2.26,2.26,0,0,0,0,.26c0,.22,0,.44,0,.67a.14.14,0,0,0,0,.09c.31.07.62.12.94.16a12.25,12.25,0,0,0,1.63.12,11.66,11.66,0,0,0,1.78-.14h0a11.57,11.57,0,0,0,2.77-.76h0A11.83,11.83,0,0,0,33.58,56,11.06,11.06,0,0,0,35,54.63a8.69,8.69,0,0,1,.09,1.26,4.75,4.75,0,0,1,0,.54h0c0,.13,0,.23,0,.36a7.94,7.94,0,0,1-.13.83v.06c0,.07,0,.16-.06.25a.94.94,0,0,1-.06.24,3.76,3.76,0,0,1-.13.48c0,.12-.07.22-.11.34l0,0a4.07,4.07,0,0,1-.18.44.77.77,0,0,1-.08.19,1.75,1.75,0,0,1-.13.28c-.07.14-.15.28-.22.43s-.36.6-.56.88a1.77,1.77,0,0,1-.17.24c-.09.11-.17.22-.27.33l0,0-.14.16a2.27,2.27,0,0,1-.26.28l0,.05-.27.26c-.2.19-.4.37-.61.54l-.27.22c-.24.17-.49.35-.75.5a2.82,2.82,0,0,1-.29.18l-.18.1-.15.08-.46.22-.07,0-.25.11-.24.1a5.27,5.27,0,0,1-.56.19c-.22.07-.45.14-.67.19a0,0,0,0,1,0,0c-.22.06-.45.1-.68.14l.59.19.52.15.83.22a11.3,11.3,0,0,0,1.11.26l.52.12A10.52,10.52,0,0,0,32,65.41l.24-.17a4.33,4.33,0,0,0,.37-.27c.18-.13.36-.28.54-.42a6.33,6.33,0,0,0,.46-.44l0,0a.47.47,0,0,0,.1-.1h0l.26-.25a1.63,1.63,0,0,1,.17-.2,5.3,5.3,0,0,0,.38-.43l0,0c.14-.16.26-.34.39-.51a2.9,2.9,0,0,0,.25-.36,1.51,1.51,0,0,0,.18-.26,4.52,4.52,0,0,0,.32-.52s0,0,0,0h0c.11-.2.21-.4.31-.62a.78.78,0,0,0,.11-.2c0,.12.05.24.07.36s0,0,0,0l0,.24h0a1.66,1.66,0,0,1,0,.33,5,5,0,0,1,.06.57c0,.14,0,.27,0,.42v.09c0,.15,0,.3,0,.45s0,.22,0,.33,0,.25,0,.38,0,.24-.06.36v0l-.06.37a.17.17,0,0,1,0,.05,5.77,5.77,0,0,1-.23.84c0,.08,0,.16-.07.23a7.43,7.43,0,0,1-.34.82c0,.09-.08.18-.13.27l.46,0,1.1,0a32.05,32.05,0,0,0,4.93-.38,11.55,11.55,0,0,0-3.47-3c0-.27,0-.55,0-.82a10.38,10.38,0,0,0-.23-2.24l0,0a9.66,9.66,0,0,1,5.5,5.73,28.09,28.09,0,0,0,3.06-.82,8.85,8.85,0,0,1,.82-2.63,11.44,11.44,0,0,0,.58,1.8l.13.3c.65-.25,1.27-.51,1.9-.8a5.93,5.93,0,0,1-.26-.63,8.83,8.83,0,0,1-.59-3.17v0c0-.16,0-.33,0-.48s0-.25,0-.38v0a1.6,1.6,0,0,0,0-.23l.06-.37c0-.08,0-.16,0-.25l0-.17a9.53,9.53,0,0,1,.28-1c.06.15.13.3.2.45l.13.26a4,4,0,0,0,.26.5.47.47,0,0,0,.05.1l.27.46a11.72,11.72,0,0,0,2.89,3.15c.62-.38,1.23-.78,1.82-1.2-.15-.1-.3-.19-.44-.3l-.28-.22a8.85,8.85,0,0,1-1.1-1c-.1-.1-.18-.21-.27-.31L53.32,59l0,0c-.07-.09-.14-.17-.21-.27a3,3,0,0,1-.22-.28,5,5,0,0,1-.32-.48,7.51,7.51,0,0,1-.39-.68c-.08-.15-.15-.32-.23-.48s-.07-.15-.09-.21-.12-.28-.18-.44a10.9,10.9,0,0,1-.43-1.61A8.73,8.73,0,0,1,51.1,53c0-.13,0-.26,0-.4s0-.21,0-.33l0-.33c0-.12,0-.25.05-.36a6.93,6.93,0,0,1,.17-.79,3.74,3.74,0,0,0,.27.42,10,10,0,0,0,1.23,1.6l.3.32,0,0a3.31,3.31,0,0,0,.27.26,2.11,2.11,0,0,0,.27.25l.15.14.27.22a1.56,1.56,0,0,0,.2.16l.07.06h0c.22.17.45.33.68.48s.48.3.73.44a11.9,11.9,0,0,0,4.48,1.42l.12,0a.57.57,0,0,0,0-.13.61.61,0,0,0,0-.14c0-.15,0-.29,0-.44a7.9,7.9,0,0,0-.07-.85c0-.09,0-.18,0-.28a.13.13,0,0,0,0-.06.62.62,0,0,0,0-.13,10.22,10.22,0,0,1-3.82-1.37,9.32,9.32,0,0,1-1.89-1.53,4.28,4.28,0,0,1-.41-.45,8.62,8.62,0,0,1-.85-1.16,9,9,0,0,1-.9-1.88,8.8,8.8,0,0,1-.5-2.73v-.09a.1.1,0,0,0,0,0,10.22,10.22,0,0,0,1.69,1.14,12.05,12.05,0,0,0,5.51,1.5c-.07-.28-.14-.55-.22-.83a1.41,1.41,0,0,0-.06-.22l-.12-.43c0-.15-.09-.32-.14-.47l0-.09a9.83,9.83,0,0,1-3.25-.87A8.6,8.6,0,0,1,53.49,44a9,9,0,0,1-1.26-1.14,9.4,9.4,0,0,1-1.4-2,11.82,11.82,0,0,0,4.22.76,11.52,11.52,0,0,0,2-.16L56.79,41c-.11-.26-.23-.51-.35-.77a5.89,5.89,0,0,0-.29-.63,10,10,0,0,1-1.1.06,8.47,8.47,0,0,1-1.23-.08,9,9,0,0,1-2.14-.5q-.27-.09-.54-.21c-.18-.08-.35-.15-.52-.24s-.49-.25-.73-.4l-.61-.4L49,37.61c-.13-.09-.25-.19-.38-.3s-.33-.29-.48-.45-.32-.31-.45-.46L47.38,36a9.4,9.4,0,0,1-1.15-1.79,9.07,9.07,0,0,1-1-4.07,10.16,10.16,0,0,1,1.2-4.28L45,24.39a12.2,12.2,0,0,0-1.73,5.79c0,.16,0,.32,0,.48s0,.1,0,.16v.08a1,1,0,0,1,0,.16c0-.09,0-.19,0-.29h0v0c0-.16-.05-.31-.08-.47s-.08-.34-.12-.5a3.31,3.31,0,0,0-.12-.45.14.14,0,0,0,0-.06c0-.17-.1-.33-.16-.49a1.8,1.8,0,0,0-.08-.21c0-.15-.12-.29-.18-.44a2,2,0,0,0-.1-.21,5.48,5.48,0,0,0-.29-.6.08.08,0,0,0,0,0,5.6,5.6,0,0,0-.47-.75s-.1.76-.14,1.18l-.08.69c0,.15-.37,1.57-.39,1.69M37.52,45a11.44,11.44,0,0,0,.9-2.16c.11-.4.21-.81.28-1.21.25-.18.48-.38.71-.57s.63-.57.92-.88a12.77,12.77,0,0,0,1.39-1.85,12,12,0,0,0,1.05-2.3,5.33,5.33,0,0,1,0,.56,9.17,9.17,0,0,1-.49,3,9.3,9.3,0,0,1-1.4,2.62l-.06.07a9,9,0,0,1-1,1.13c-.12.12-.25.23-.38.34l-.45.36a4.06,4.06,0,0,1-.36.26,10.69,10.69,0,0,1-1.12.67Zm.22,2.26v-.13a11.42,11.42,0,0,0,3-1.81l.19-.17c0,.13,0,.24-.07.37a9.43,9.43,0,0,1-3.9,5.9A10.89,10.89,0,0,0,37.74,47.28Zm2.06,9.3,0,0c-.11.11-.22.24-.34.34a1.92,1.92,0,0,1-.29.28,4.28,4.28,0,0,1-.55.49c-.19.15-.39.29-.59.43l-.42.27c-.06-.15-.12-.3-.19-.44s-.22-.46-.33-.67a9.5,9.5,0,0,0,.09-1.42A11.05,11.05,0,0,0,37,53.8,11.64,11.64,0,0,0,42,48.5a8.64,8.64,0,0,1,.19,1.84c0,.17,0,.33,0,.49v0l0,.25c0,.12,0,.25,0,.36s0,0,0,0a1.71,1.71,0,0,1,0,.25h0l-.06.36c0,.07,0,.13-.05.2l0,.2-.06.22a.7.7,0,0,1-.06.19v0l-.13.39c-.05.17-.12.32-.18.48s0,0,0,0l-.12.26c0,.1-.09.2-.14.31l-.09.17L41,55l-.09.15a2.53,2.53,0,0,1-.18.27c-.07.13-.15.24-.22.36a.1.1,0,0,1,0,0s0,0,0,0a3,3,0,0,1-.3.4C40,56.35,39.9,56.46,39.8,56.58Zm7.54,2.77A11.18,11.18,0,0,0,45,63.83a11.72,11.72,0,0,0-4.81-4.78,11.45,11.45,0,0,0,3.67-5.68,11.62,11.62,0,0,0,3.85,3.85A10,10,0,0,0,47.34,59.35Zm1.75-5.3a11.31,11.31,0,0,0-.68,1.23,9.35,9.35,0,0,1-4.08-8.82,11.66,11.66,0,0,0,4.79,5.23A11.24,11.24,0,0,0,49,53C49,53.35,49.06,53.71,49.09,54.05Zm.48-4.47a4.84,4.84,0,0,1-.46-.33c-.15-.11-.29-.23-.44-.36a5,5,0,0,1-.42-.38c-.13-.13-.25-.24-.36-.37a.6.6,0,0,1-.08-.08l-.33-.39c-.24-.3-.46-.6-.67-.92-.1-.16-.2-.32-.29-.5a4.3,4.3,0,0,1-.24-.48c-.1-.2-.19-.41-.27-.62s-.12-.31-.17-.46a5.15,5.15,0,0,1-.16-.56,5.27,5.27,0,0,1-.14-.57c0-.18-.06-.38-.09-.57h0a9.26,9.26,0,0,1-.08-1.19c0-.2,0-.4,0-.6v0q0-.3.06-.57c0-.16,0-.29.07-.44l.06-.3c0-.15.07-.3.11-.46s.08-.29.13-.43.08-.23.13-.35a6.81,6.81,0,0,1,.31-.74c.17.19.36.38.56.57s.3.27.45.39a2,2,0,0,0,.32.25,4.06,4.06,0,0,0,.46.36h0c0,.16.09.32.14.48s.09.26.14.4.13.35.2.54.13.3.2.44a0,0,0,0,0,0,0c.07.15.14.28.21.44l.24.42A11,11,0,0,0,50,43.41a10.43,10.43,0,0,0-.15,1.78A11.23,11.23,0,0,0,50.23,48,11.71,11.71,0,0,0,49.57,49.58Z" transform="translate(-0.04)"/></g></g></g></g></g></svg>